<?xml version="1.0" encoding="iso-8859-1"?>
<!-- Uploaded to: SVG Repo, www.svgrepo.com, Generator: SVG Repo Mixer Tools -->
<svg id="paper" height="800px" width="800px" version="1.1" xmlns="http://www.w3.org/2000/svg" xmlns:xlink="http://www.w3.org/1999/xlink" 
	 viewBox="0 0 512.001 512.001" xml:space="preserve">
<path style="fill:#C79A5C;" d="M431.258,507.47L8.3,84.513C1.758,77.97,0.339,66.46,9.877,59.284
	c3.863-2.917,8.042-5.675,12.219-8.278l441.956,441.956c-2.601,4.179-5.282,8.277-8.278,12.219c-0.079,0.079-0.079,0.079,0,0.158
	C448.838,514.328,437.801,513.381,431.258,507.47z"/>
<path style="fill:#BC8754;" d="M431.258,507.47l-213.41-213.41l23.651-23.651l222.554,222.554
	c-2.601,4.179-5.282,8.277-8.278,12.219c-0.079,0.079-0.079,0.079,0,0.158C448.838,514.328,437.801,513.381,431.258,507.47z"/>
<path style="fill:#957856;" d="M455.776,505.341c-0.079-0.079-0.079-0.079,0-0.158c2.996-3.942,5.677-8.041,8.278-12.219
	c59.758-99.176,8.357-275.454-79.073-362.883l-1.576-1.576C295.501,42.02,120.799-8.278,22.097,51.007
	c-4.178,2.602-8.356,5.362-12.219,8.278C0.34,66.46,1.759,77.971,8.301,84.514c4.179,4.179,10.407,6.307,17.187,3.942
	c8.593-3.075,18.368-4.809,28.775-5.281c78.679-3.468,202.215,61.413,258.188,116.283l1.577,1.576
	c55.264,55.264,121.408,180.378,117.861,259.766c-0.473,10.407-2.208,20.182-5.124,28.775c-2.128,6.071-0.945,11.51,2.208,15.61
	c0.709,0.867,1.418,1.576,2.287,2.287C437.801,513.381,448.838,514.328,455.776,505.341z"/>
<path style="fill:#896F57;" d="M431.258,507.47c-0.869-0.71-1.578-1.419-2.287-2.287c-3.153-4.1-4.336-9.539-2.208-15.61
	c2.917-8.593,4.651-18.368,5.124-28.775c3.548-79.387-62.597-204.502-117.861-259.766l-1.576-1.576l70.953-70.953l1.577,1.576
	c87.43,87.43,138.831,263.707,79.073,362.883c-2.601,4.179-5.282,8.277-8.278,12.219c-0.079,0.079-0.079,0.079,0,0.158
	C448.838,514.328,437.801,513.381,431.258,507.47z"/>
<polygon style="fill:#696B6F;" points="466.181,69.377 80.436,455.122 74.524,437.385 56.785,431.471 442.531,45.726 "/>
<polygon style="fill:#616267;" points="74.524,437.385 80.436,455.122 466.181,69.377 454.356,57.552 "/>
<path style="fill:#FF5F4A;" d="M194.039,435.807c4.494-4.494,6.228-10.958,4.178-16.95l-20.417-61.097l-3.233-9.855
	c-0.709-2.286-2.208-4.571-4.1-6.463c-1.813-1.813-4.1-3.311-6.463-4.1l-9.855-3.233l-61.097-20.417
	c-5.992-2.05-12.614-0.474-17.108,4.02L4.99,388.665c-8.751,8.751-5.282,23.729,6.543,27.671l45.252,15.137l17.738,5.912
	l5.912,17.738l15.137,45.252c3.863,11.747,18.762,15.293,27.592,6.464L194.039,435.807z"/>
<path style="fill:#D8482B;" d="M123.165,506.839c-8.83,8.83-23.729,5.282-27.592-6.464l-15.137-45.252l-5.912-17.738l95.944-95.944
	c1.892,1.892,3.39,4.178,4.1,6.463l3.233,9.855l20.417,61.097c2.05,5.992,0.316,12.457-4.178,16.95L123.165,506.839z"/>
<path style="fill:#DFE2EF;" d="M475.8,105.326l34.766-82.069c2.679-6.308,1.261-13.56-3.548-18.369
	c-4.809-4.809-12.061-6.228-18.369-3.548L406.58,36.106c-6.228,2.602-10.248,8.672-10.249,15.452v47.301
	c0.079,4.651,1.892,8.83,4.888,11.826c3.075,3.075,7.254,4.888,11.826,4.888h47.303C467.128,115.575,473.198,111.554,475.8,105.326z
	"/>
<path style="fill:#D5D7E5;" d="M460.348,115.575h-47.301c-4.572,0-8.751-1.814-11.826-4.888L507.018,4.889
	c4.809,4.809,6.228,12.061,3.548,18.369L475.8,105.327C473.198,111.554,467.128,115.575,460.348,115.575z"/>
</svg>