<?xml version="1.0" encoding="iso-8859-1"?>
<!-- Uploaded to: SVG Repo, www.svgrepo.com, Generator: SVG Repo Mixer Tools -->
<svg height="800px" width="800px" version="1.1" xmlns="http://www.w3.org/2000/svg" xmlns:xlink="http://www.w3.org/1999/xlink" 
	 viewBox="0 0 503.838 503.838" xml:space="preserve">
<g transform="translate(0.5 1)">
	<path style="fill:#F2EDDA;" d="M251.018,497.532c136.533,0,247.467-110.933,247.467-247.467S387.551,2.599,251.018,2.599
		S3.551,113.532,3.551,250.066S114.485,497.532,251.018,497.532z M251.018,446.332c108.373,0,196.267-87.893,196.267-196.267
		S359.391,53.799,251.018,53.799c-108.373,0-196.267,87.893-196.267,196.267S142.645,446.332,251.018,446.332z"/>
	<path style="fill:#FFD0A1;" d="M237.365,209.959c4.267-1.707,8.533-2.56,13.653-2.56s9.387,0.853,13.653,2.56
		c17.067,5.12,29.013,21.333,29.013,40.96c0,3.413,0,5.973-0.853,9.387c-2.56,9.387-7.68,17.92-14.507,23.893
		c-7.68,5.973-17.067,9.387-27.307,9.387c-10.24,0-19.627-3.413-27.307-9.387c-6.827-5.973-11.947-12.8-14.507-22.187
		c-0.853-3.413-1.707-6.827-1.707-11.093C207.498,231.292,220.298,215.079,237.365,209.959"/>
	<path style="fill:#AAB1BA;" d="M275.765,70.866c0,25.6-4.267,69.12-8.533,106.667l-4.267,31.573
		c-4.267-1.707-8.533-2.56-13.653-2.56c-4.267,0-9.387,0.853-13.653,2.56c-5.12-44.373-11.947-112.64-11.947-139.093
		c0-51.2,8.533-68.267,25.6-68.267S275.765,19.666,275.765,70.866z M420.831,318.332c44.373,25.6,54.613,41.813,46.08,56.32
		c-8.533,14.507-27.307,13.653-71.68-11.947c-22.187-12.8-58.027-38.4-88.747-60.587l-25.6-19.627h-3.413
		c6.827-5.973,11.947-14.507,14.507-23.893l1.707,0.853C334.645,278.225,397.791,305.532,420.831,318.332z M222.858,283.346
		l-0.853,0.853c-35.84,26.453-91.307,67.413-114.347,80.213c-44.373,25.6-63.147,26.453-71.68,11.947s1.707-30.72,46.08-56.32
		c21.333-12.8,61.44-30.72,96.427-46.08l29.013-12.8h0.853C211.765,269.692,216.885,277.372,222.858,283.346z"/>
</g>
<path style="fill:#51565F;" d="M248.958,503.652c-4.267,0-8.533,0-12.8,0c-2.56,0-4.267-2.56-4.267-4.267
	c0-2.56,2.56-4.267,4.267-4.267c18.773,0.853,38.4,0,59.733-4.267c2.56,0,4.267,0.853,5.12,3.413c0.853,2.56-0.853,4.267-3.413,5.12
	C281.385,501.946,264.318,503.652,248.958,503.652z M331.731,489.146c-1.707,0-3.413-0.853-4.267-2.56
	c-0.853-2.56,0-4.267,2.56-5.12c33.28-11.947,64.853-30.72,90.453-55.467c1.707-1.707,4.267-1.707,5.973,0
	c1.707,1.707,1.707,4.267,0,5.973c-26.453,25.6-58.88,45.227-93.013,57.173C332.585,489.146,332.585,489.146,331.731,489.146z
	 M166.185,487.439c-0.853,0-0.853,0-1.707,0c-22.187-7.68-42.667-18.773-61.44-32.427c-1.707-1.707-2.56-4.267-0.853-5.973
	c1.707-1.707,4.267-2.56,5.973-0.853c17.92,12.8,38.4,23.893,58.88,31.573c2.56,0.853,3.413,3.413,2.56,5.12
	C169.598,486.586,168.745,487.439,166.185,487.439z M269.438,450.746c-2.56,0-4.267-1.707-4.267-4.267
	c0-2.56,1.707-4.267,4.267-4.267c33.28-2.56,65.707-14.507,93.013-34.133c1.707-1.707,4.267-0.853,5.973,0.853
	c1.707,1.707,0.853,4.267-0.853,5.973C337.705,435.386,304.425,447.332,269.438,450.746L269.438,450.746z M54.398,388.452
	c-9.387,0-16.213-4.267-20.48-11.947c-10.24-18.773,3.413-36.693,47.787-62.293c17.92-10.24,51.2-26.453,97.28-46.08
	c2.56-0.853,4.267,0,5.973,2.56c1.707,2.56,0,4.267-2.56,5.973c-46.08,20.48-78.507,35.84-96.427,46.08
	c-48.64,28.16-50.347,40.96-44.373,50.347c5.12,9.387,17.067,14.507,65.707-13.653c22.187-12.8,78.507-54.613,109.227-76.8
	c-7.68-8.533-11.947-18.773-11.947-30.72c0-19.627,11.947-36.693,29.013-43.52c-5.973-48.64-11.947-110.933-11.947-135.68
	c0-51.2,8.533-72.533,29.867-72.533s29.867,21.333,29.867,72.533c0,21.333-2.56,57.173-8.533,107.52c0,2.56-2.56,4.267-5.12,3.413
	c-2.56,0-4.267-2.56-3.413-5.12c5.12-49.493,8.533-85.333,8.533-106.667c0-56.32-11.093-64-21.333-64
	c-10.24,0-21.333,7.68-21.333,64c0,25.6,6.827,92.16,11.947,133.12c3.413-0.853,5.973-0.853,9.387-0.853
	c25.6,0,46.933,21.333,46.933,46.933c0,1.707,0,4.267,0,5.973c26.453,11.093,98.133,43.52,123.733,58.027
	c44.373,25.6,58.88,43.52,47.787,62.293c-10.24,18.773-33.28,15.36-77.653-10.24c-17.92-10.24-47.787-30.72-88.747-60.587
	c-1.707-1.707-2.56-4.267-0.853-5.973c1.707-1.707,4.267-2.56,5.973-0.853c40.107,29.013,69.973,50.347,87.893,60.587
	c48.64,28.16,60.587,23.04,65.707,13.653c5.12-9.387,4.267-22.187-44.373-50.347c-19.627-11.947-75.093-36.693-121.173-56.32
	c-5.973,18.773-23.893,32.427-44.373,32.427c-11.093,0-21.333-3.413-29.013-10.24c-29.867,22.187-87.893,64.853-110.933,78.507
	C85.971,381.625,67.198,388.452,54.398,388.452z M238.718,215.225c-14.507,5.12-25.6,19.627-25.6,35.84
	c0,21.333,17.067,38.4,38.4,38.4c18.773,0,34.133-12.8,37.547-30.72l0,0c0.853-2.56,0.853-5.12,0.853-7.68
	c0-21.333-17.067-38.4-38.4-38.4c-3.413,0-7.68,0.853-11.093,1.707C240.425,214.372,239.571,215.225,238.718,215.225
	L238.718,215.225z M11.731,315.066c-1.707,0-3.413-1.707-4.267-3.413c-8.533-35.84-10.24-73.387-2.56-109.227
	c0.853-2.56,2.56-3.413,5.12-3.413c2.56,0.853,3.413,2.56,3.413,5.12c-6.827,34.987-5.973,71.68,2.56,105.813
	c0.853,2.56-0.853,4.267-3.413,5.12C11.731,315.066,11.731,315.066,11.731,315.066z M498.131,280.932
	C497.278,280.932,497.278,280.932,498.131,280.932c-2.56,0-4.267-2.56-4.267-5.12c2.56-22.187,1.707-45.227-2.56-67.413
	c0-2.56,0.853-4.267,3.413-5.12c2.56,0,4.267,0.853,5.12,3.413c4.267,23.04,5.12,46.08,2.56,69.12
	C501.545,279.225,499.838,280.932,498.131,280.932z M56.105,272.399c-2.56,0-4.267-1.707-4.267-4.267
	c-3.413-34.987,3.413-69.973,17.92-101.547c0.853-2.56,3.413-3.413,5.973-1.707c2.56,0.853,3.413,3.413,1.707,5.973
	c-13.653,30.72-19.627,64-17.067,97.28C60.371,269.839,58.665,272.399,56.105,272.399L56.105,272.399z M17.705,173.412
	c-0.853,0-0.853,0-1.707,0c-2.56-0.853-3.413-3.413-2.56-5.12c7.68-20.48,16.213-39.253,27.307-55.467
	c1.707-1.707,4.267-2.56,5.973-0.853c1.707,1.707,2.56,4.267,0.853,5.973c-10.24,15.36-18.773,33.28-26.453,53.76
	C21.118,172.559,19.411,173.412,17.705,173.412z M473.385,144.399c-1.707,0-3.413-0.853-3.413-2.56
	c-8.533-16.213-19.627-33.28-33.28-49.493c-1.707-1.707-1.707-4.267,0.853-5.973c1.707-1.707,4.267-1.707,5.973,0.853
	c14.507,17.067,26.453,34.133,34.987,51.2c0.853,1.707,0,4.267-1.707,5.973C475.091,144.399,474.238,144.399,473.385,144.399z
	 M411.945,142.692c-1.707,0-2.56-0.853-3.413-1.707c-19.627-27.307-45.227-49.493-75.947-63.147
	c-2.56-0.853-3.413-3.413-1.707-5.973c0.853-2.56,3.413-3.413,5.973-1.707c31.573,14.507,58.88,37.547,79.36,66.56
	c1.707,1.707,0.853,4.267-0.853,5.973C413.651,141.839,412.798,142.692,411.945,142.692z M414.505,68.452
	c-0.853,0-1.707,0-2.56-0.853c-26.453-23.04-58.88-40.96-93.013-50.347c-2.56-0.853-3.413-3.413-2.56-5.12
	c0.853-2.56,3.413-3.413,5.12-2.56c34.987,10.24,68.267,28.16,96.427,52.053c1.707,1.707,1.707,4.267,0,5.973
	C416.211,68.452,415.358,68.452,414.505,68.452z M92.798,65.892c-0.853,0-2.56-0.853-3.413-1.707
	c-1.707-1.707-0.853-4.267,0.853-5.973c17.92-14.507,37.547-27.307,58.88-36.693c2.56-0.853,4.267,0,5.973,2.56
	c0.853,2.56,0,4.267-2.56,5.973c-20.48,9.387-40.107,21.333-57.173,35.84C94.505,65.039,93.651,65.892,92.798,65.892z"/>
</svg>